<svg xmlns="http://www.w3.org/2000/svg" version="1.1" xmlns:xlink="http://www.w3.org/1999/xlink" xmlns:svgjs="http://svgjs.dev/svgjs" width="1000" height="126" viewBox="0 0 1000 126"><g transform="matrix(1,0,0,1,-0.6060431332514327,0.05645645424166901)"><svg viewBox="0 0 396 50" data-background-color="#ffffff" preserveAspectRatio="xMidYMid meet" height="126" width="1000" xmlns="http://www.w3.org/2000/svg" xmlns:xlink="http://www.w3.org/1999/xlink"><g id="tight-bounds" transform="matrix(1,0,0,1,0.2399938772881569,-0.022403129271282296)"><svg viewBox="0 0 395.52 50.044803781347184" height="50.044803781347184" width="395.52"><g><svg viewBox="0 0 467.01258983000685 59.09069938678567" height="50.044803781347184" width="395.52"><g><rect width="3.855904668814833" height="51.308856196919535" x="57.54269388157202" y="3.8909215949330687" fill="#6230a3" opacity="1" stroke-width="0" stroke="transparent" fill-opacity="1" class="rect-o-0" data-fill-palette-color="primary" rx="1%" id="o-0" data-palette-color="#6230a3"></rect></g><g transform="matrix(1,0,0,1,71.49258983000684,8.166659611343029)"><svg viewBox="0 0 395.52 42.757380164099615" height="42.757380164099615" width="395.52"><g><svg viewBox="0 0 395.52 42.757380164099615" height="42.757380164099615" width="395.52"><g><svg viewBox="0 0 395.52 42.757380164099615" height="42.757380164099615" width="395.52"><g transform="matrix(1,0,0,1,0,0)"><svg width="395.52" viewBox="3.3499999046325684 -36.95000076293945 347.3299865722656 37.54999923706055" height="42.757380164099615" data-palette-color="#6230a3"><path d="M26.95-27.95L26.95-27.95Q26.95-26.05 26.15-24.33 25.35-22.6 23.93-21.4 22.5-20.2 20.5-19.85L20.5-19.85Q23-19.5 24.8-18.15 26.6-16.8 27.6-14.75 28.6-12.7 28.6-10.2L28.6-10.2Q28.6-7.05 27.4-5.03 26.2-3 24.2-1.9 22.2-0.8 19.68-0.4 17.15 0 14.55 0L14.55 0 4.05 0 4.05-33.2Q4.05-33.25 3.88-33.98 3.7-34.7 3.55-35.5 3.4-36.3 3.35-36.45L3.35-36.45 15.7-36.45Q17.85-36.45 19.85-36.08 21.85-35.7 23.45-34.75 25.05-33.8 26-32.18 26.95-30.55 26.95-27.95ZM21.55-27.7L21.55-27.7Q21.55-29.6 20.73-30.68 19.9-31.75 18.53-32.23 17.15-32.7 15.5-32.7L15.5-32.7 9.2-32.7 9.2-21.55 14.5-21.55Q17.7-21.55 19.63-22.95 21.55-24.35 21.55-27.7ZM23.15-10.95L23.15-10.95Q23.15-13.45 21.88-14.95 20.6-16.45 18.57-17.13 16.55-17.8 14.4-17.8L14.4-17.8 9.2-17.8 9.2-3.75 14.7-3.75Q17.2-3.75 19.1-4.4 21-5.05 22.08-6.63 23.15-8.2 23.15-10.95ZM34.05-36.45L40.05-36.45 40.05-12.2Q40.05-8.1 42.17-5.63 44.3-3.15 48.6-3.15L48.6-3.15Q53.05-3.15 55.37-5.8 57.7-8.45 57.7-12.75L57.7-12.75 57.7-36.45 61.95-36.45 61.95-13.1Q61.95-8.7 60.3-5.65 58.65-2.6 55.6-1 52.55 0.6 48.3 0.6L48.3 0.6Q41.9 0.6 38.35-2.75 34.8-6.1 34.8-12.55L34.8-12.55 34.8-33.2 34.05-36.45ZM99-18.15L99-18.15Q99-12.85 97.15-8.78 95.3-4.7 91.57-2.35 87.84 0 82.25 0L82.25 0 70.14 0 70.14-33.2Q70.14-33.25 69.97-33.98 69.8-34.7 69.64-35.5 69.5-36.3 69.45-36.45L69.45-36.45 79.75-36.45Q85.7-36.45 90-34.52 94.3-32.6 96.65-28.55 99-24.5 99-18.15ZM93.59-18.15L93.59-18.15Q93.59-21.8 92.7-24.53 91.8-27.25 90.02-29.08 88.25-30.9 85.59-31.8 82.95-32.7 79.34-32.7L79.34-32.7 75.25-32.7 75.25-3.75 81.7-3.75Q86.09-3.75 88.7-5.73 91.3-7.7 92.45-10.98 93.59-14.25 93.59-18.15ZM120.24-36.95L120.24-36.95Q122.19-36.95 124.47-36.52 126.74-36.1 128.87-35.2 130.99-34.3 132.39-32.85L132.39-32.85 129.54-29.55Q127.99-30.8 126.64-31.58 125.29-32.35 123.84-32.75 122.39-33.15 120.24-33.15L120.24-33.15Q116.99-33.15 114.77-31.9 112.54-30.65 111.14-28.55 109.74-26.45 109.09-23.78 108.44-21.1 108.44-18.25L108.44-18.25Q108.44-15.6 109.04-12.95 109.64-10.3 110.97-8.13 112.29-5.95 114.42-4.65 116.54-3.35 119.69-3.35L119.69-3.35Q122.24-3.35 124.14-4.48 126.04-5.6 127.09-7.55 128.14-9.5 128.14-12.05L128.14-12.05 128.14-15.3 119.49-15.3 120.09-18.9 133.34-18.9 133.29-8.7Q133.29-6.55 133.44-4.35 133.59-2.15 133.74 0L133.74 0 130.99 0 129.39-3.8Q127.14-1.45 124.62-0.43 122.09 0.6 118.79 0.6L118.79 0.6Q114.84 0.6 111.89-0.88 108.94-2.35 106.97-4.93 104.99-7.5 104.04-10.8 103.09-14.1 103.09-17.8L103.09-17.8Q103.09-23.25 105.02-27.58 106.94-31.9 110.77-34.43 114.59-36.95 120.24-36.95ZM140.44-33.2L139.74-36.45 161.84-36.45 161.84-32.7 145.54-32.7 145.54-20.6 158.14-20.6 158.14-16.85 145.54-16.85 145.54-3.75 161.84-3.75 161.84 0 140.44 0 140.44-33.2ZM175.54 0L175.54-32.7 164.89-32.7 164.89-36.45 191.59-36.45 191.59-32.7 180.79-32.7 180.79 0 175.54 0ZM219.64-27.95L219.64-27.95Q219.64-26.05 218.84-24.33 218.04-22.6 216.61-21.4 215.19-20.2 213.19-19.85L213.19-19.85Q215.69-19.5 217.49-18.15 219.29-16.8 220.29-14.75 221.29-12.7 221.29-10.2L221.29-10.2Q221.29-7.05 220.09-5.03 218.89-3 216.89-1.9 214.89-0.8 212.36-0.4 209.84 0 207.24 0L207.24 0 196.74 0 196.74-33.2Q196.74-33.25 196.56-33.98 196.39-34.7 196.24-35.5 196.09-36.3 196.04-36.45L196.04-36.45 208.39-36.45Q210.54-36.45 212.54-36.08 214.54-35.7 216.14-34.75 217.74-33.8 218.69-32.18 219.64-30.55 219.64-27.95ZM214.24-27.7L214.24-27.7Q214.24-29.6 213.41-30.68 212.59-31.75 211.21-32.23 209.84-32.7 208.19-32.7L208.19-32.7 201.89-32.7 201.89-21.55 207.19-21.55Q210.39-21.55 212.31-22.95 214.24-24.35 214.24-27.7ZM215.84-10.95L215.84-10.95Q215.84-13.45 214.56-14.95 213.29-16.45 211.26-17.13 209.24-17.8 207.09-17.8L207.09-17.8 201.89-17.8 201.89-3.75 207.39-3.75Q209.89-3.75 211.79-4.4 213.69-5.05 214.76-6.63 215.84-8.2 215.84-10.95ZM241.73 0.55L241.73 0.55Q237.68 0.55 234.61-0.95 231.53-2.45 229.48-5.05 227.43-7.65 226.41-11.03 225.38-14.4 225.38-18.2L225.38-18.2Q225.38-22 226.41-25.38 227.43-28.75 229.46-31.38 231.48-34 234.58-35.48 237.68-36.95 241.78-36.95L241.78-36.95Q245.93-36.95 249.01-35.48 252.08-34 254.13-31.4 256.18-28.8 257.21-25.4 258.23-22 258.23-18.15L258.23-18.15Q258.23-14.35 257.18-10.98 256.13-7.6 254.08-5 252.03-2.4 248.96-0.93 245.88 0.55 241.73 0.55ZM241.83-3.15L241.83-3.15Q244.98-3.15 247.08-4.48 249.18-5.8 250.46-8 251.73-10.2 252.28-12.85 252.83-15.5 252.83-18.15L252.83-18.15Q252.83-20.8 252.28-23.45 251.73-26.1 250.46-28.3 249.18-30.5 247.06-31.85 244.93-33.2 241.83-33.2L241.83-33.2Q238.73-33.2 236.61-31.88 234.48-30.55 233.23-28.35 231.98-26.15 231.41-23.5 230.83-20.85 230.83-18.2L230.83-18.2Q230.83-15.55 231.41-12.9 231.98-10.25 233.23-8.03 234.48-5.8 236.61-4.48 238.73-3.15 241.83-3.15ZM278.58 0.55L278.58 0.55Q274.53 0.55 271.46-0.95 268.38-2.45 266.33-5.05 264.28-7.65 263.26-11.03 262.23-14.4 262.23-18.2L262.23-18.2Q262.23-22 263.26-25.38 264.28-28.75 266.31-31.38 268.33-34 271.43-35.48 274.53-36.95 278.63-36.95L278.63-36.95Q282.78-36.95 285.86-35.48 288.93-34 290.98-31.4 293.03-28.8 294.06-25.4 295.08-22 295.08-18.15L295.08-18.15Q295.08-14.35 294.03-10.98 292.98-7.6 290.93-5 288.88-2.4 285.81-0.93 282.73 0.55 278.58 0.55ZM278.68-3.15L278.68-3.15Q281.83-3.15 283.93-4.48 286.03-5.8 287.31-8 288.58-10.2 289.13-12.85 289.68-15.5 289.68-18.15L289.68-18.15Q289.68-20.8 289.13-23.45 288.58-26.1 287.31-28.3 286.03-30.5 283.91-31.85 281.78-33.2 278.68-33.2L278.68-33.2Q275.58-33.2 273.46-31.88 271.33-30.55 270.08-28.35 268.83-26.15 268.26-23.5 267.68-20.85 267.68-18.2L267.68-18.2Q267.68-15.55 268.26-12.9 268.83-10.25 270.08-8.03 271.33-5.8 273.46-4.48 275.58-3.15 278.68-3.15ZM311.08-36.95L311.08-36.95Q313.63-36.95 316.05-36.25 318.48-35.55 320.63-34.2L320.63-34.2 318.13-30.65Q316.58-31.8 314.75-32.48 312.93-33.15 311.03-33.15L311.03-33.15Q308.53-33.15 306.73-31.9 304.93-30.65 304.93-27.9L304.93-27.9Q304.93-26.3 305.75-25.2 306.58-24.1 307.98-23.28 309.38-22.45 311.08-21.65L311.08-21.65Q312.83-20.85 314.65-19.9 316.48-18.95 318.03-17.68 319.58-16.4 320.5-14.58 321.43-12.75 321.43-10.1L321.43-10.1Q321.43-6.45 319.68-4.08 317.93-1.7 315.05-0.55 312.18 0.6 308.88 0.6L308.88 0.6Q306.08 0.6 303.45-0.13 300.83-0.85 298.38-2.15L298.38-2.15 300.28-6.55Q301.98-5.1 304.3-4.17 306.63-3.25 308.83-3.25L308.83-3.25Q310.48-3.25 312.13-3.88 313.78-4.5 314.88-5.85 315.98-7.2 315.98-9.3L315.98-9.3Q315.98-11.4 314.93-12.78 313.88-14.15 312.2-15.13 310.53-16.1 308.63-16.95L308.63-16.95Q306.98-17.75 305.35-18.6 303.73-19.45 302.38-20.6 301.03-21.75 300.23-23.38 299.43-25 299.43-27.25L299.43-27.25Q299.43-30.5 301.13-32.65 302.83-34.8 305.5-35.88 308.18-36.95 311.08-36.95ZM334.63 0L334.63-32.7 323.98-32.7 323.98-36.45 350.68-36.45 350.68-32.7 339.88-32.7 339.88 0 334.63 0Z" opacity="1" transform="matrix(1,0,0,1,0,0)" fill="#6230a3" class="undefined-text-0" data-fill-palette-color="primary" id="text-0"></path></svg></g></svg></g></svg></g></svg></g><g><svg viewBox="0 0 47.448702601952036 59.09069938678567" height="59.09069938678567" width="47.448702601952036"><g><svg xmlns="http://www.w3.org/2000/svg" xmlns:xlink="http://www.w3.org/1999/xlink" version="1.1" x="0" y="0" viewBox="13.984668731689453 5.25100040435791 72.03059387207031 89.70399475097656" enable-background="new 0 0 100 100" xml:space="preserve" height="59.09069938678567" width="47.448702601952036" class="icon-icon-0" data-fill-palette-color="accent" id="icon-0"><path fill="#bc86fc" d="M78.544 84.644c-0.6-3.724-3.953-7.001-7.635-7.001-0.364 0-0.734 0.035-1.112 0.097-4.254 0.785-3.555 2.195-5.169 2.586-0.077 0.013-0.154 0.027-0.223 0.027-0.895 0-1.614-1.284-2.662-3.495-0.091-0.172-0.177-0.361-0.267-0.549-0.082-0.181-0.173-0.371-0.265-0.559l0.056-0.035c-1.154-2.445-2.69-5.617-5.023-9.208l-6.038-8.816-3.038-4.611-0.235-0.356-1.001-1.524-0.132-0.203-0.868-1.306-0.494-0.755-1.984-3.018-12.19-18.506c-2.831 4.122-1.819 8.648 0.06 12.101l3.898 6.155 1.693 2.661 0.439 0.7 0.712 1.123 0.218 0.333 0.922 1.462 0.043 0.07 7.314 11.541 6.071 7.209 2.403 2.053c1.802 1.567 3.186 3.18 4.26 4.787l0.021-0.013c0.112 0.175 0.214 0.349 0.32 0.523 0.106 0.176 0.211 0.349 0.308 0.532 2.068 3.701 2.831 7.349 4.037 10.402 1.049 3.48 4.502 5.904 8.022 5.904 0.74 0 1.481-0.103 2.207-0.328C77.418 93.578 79.514 88.673 78.544 84.644zM49.884 64.97c-0.016 0-0.036 0-0.052-0.001-0.679-0.03-1.198-0.606-1.166-1.278 0.025-0.66 0.564-1.169 1.217-1.169 0.021 0 0.036 0 0.056 0.001 0.67 0.034 1.198 0.598 1.168 1.276C51.077 64.454 50.533 64.97 49.884 64.97zM73.413 91.611c-0.779 0.451-1.6 0.65-2.414 0.65-3.333 0-6.519-3.392-6.16-6.871 0.13-3.001 2.723-4.846 5.448-4.846 1.568 0 3.179 0.609 4.393 1.959C76.964 85.025 76.757 90.029 73.413 91.611z" data-fill-palette-color="accent"></path><path fill="#bc86fc" d="M39.67 76.115l0.03 0.021c-1.886 3.222-2.912 5.091-4.074 4.701-1.573-0.528-0.751-1.874-4.923-3.038-4.006-1.11-8.299 2.068-9.335 6.09-1.318 3.922 0.316 8.998 4.413 10.416 4.045 1.675 9.047-0.545 10.692-4.62 1.673-3.337 2.851-7.474 6.006-11.416l0.023 0.019c1.184-1.423 2.637-2.821 4.486-4.139l2.395-1.714-4.025-4.783C42.805 70.899 41.013 73.823 39.67 76.115zM25.855 91.286c-3.186-1.877-2.944-6.869-0.441-9.182 3.657-3.38 9.761-0.954 9.536 3.759C35.012 90.214 29.618 93.941 25.855 91.286z" data-fill-palette-color="accent"></path><path fill="#bc86fc" d="M63.584 54.94c-2.754-0.12-5.457-0.554-8.126-0.966l-2.315 2.985 4.13 6.196L63.584 54.94z" data-fill-palette-color="accent"></path><path fill="#bc86fc" d="M85.997 42.664L83.007 9.536c-0.149-1.643-1.145-3.087-2.628-3.809-0.649-0.318-1.353-0.476-2.055-0.476-0.142 0-0.285 0.008-0.426 0.019-0.753 0.066-1.485 0.317-2.134 0.739-3.031 1.97-6.371 3.096-10.212 3.439-0.935 0.083-1.881 0.121-2.836 0.121-4.275 0-8.74-0.76-13.414-1.561-4.893-0.841-9.925-1.7-15.021-1.7-1.22 0-2.441 0.048-3.665 0.159-5.401 0.492-10.138 2.095-14.486 4.919-1.467 0.954-2.28 2.631-2.127 4.369l2.984 33.129c0.15 1.644 1.15 3.086 2.633 3.808 0.656 0.317 1.362 0.477 2.068 0.477 0.138 0 0.276-0.007 0.412-0.018 0.752-0.07 1.482-0.32 2.138-0.743 2.624-1.702 5.48-2.773 8.691-3.253l-1.348-2.124-4.008-6.329-0.052-0.081-0.044-0.082c-2.996-5.504-2.961-10.989 0.094-15.445l2.418-3.527 2.353 3.571 12.534 19.035 2.041 3.105 1.396 2.117 0.457 0.693c0.085 0.013 0.172 0.027 0.254 0.04 0.825 0.14 0.832 0.141 1.673 0.286 1.917 0.328 3.853 0.658 5.807 0.94 2.781 0.4 5.593 0.701 8.427 0.747 0.27 0.005 0.54 0.008 0.812 0.008 1.212 0 2.426-0.05 3.642-0.161 5.398-0.485 10.138-2.093 14.487-4.916C85.333 46.08 86.15 44.397 85.997 42.664zM54.548 39.525c-3.029 0-5.723-1.159-7.593-3.328-1.421-1.571-2.356-3.741-2.692-6.433h-2.319V27.93h2.132c0-0.187 0-0.374 0-0.561 0-0.599 0.037-1.16 0.075-1.683h-2.207v-1.87h2.468c0.449-2.618 1.571-4.788 3.068-6.321 1.907-1.982 4.338-3.104 7.405-3.104 2.207 0 3.927 0.636 4.975 1.197l-0.748 2.469c-0.935-0.561-2.506-1.048-4.189-1.048-2.019 0-3.665 0.711-4.937 2.057-1.122 1.085-1.87 2.768-2.244 4.75h10.435v1.87H47.404c-0.037 0.486-0.075 1.048-0.075 1.571 0 0.225 0 0.411 0 0.673h10.846v1.833H47.59c0.3 2.169 1.048 3.777 2.058 4.9 1.384 1.459 3.254 2.169 5.273 2.169 1.983 0 3.703-0.748 4.564-1.235l0.636 2.356C58.961 38.739 57.017 39.525 54.548 39.525z" data-fill-palette-color="accent"></path></svg></g></svg></g></svg></g><defs></defs></svg><rect width="395.52" height="50.044803781347184" fill="none" stroke="none" visibility="hidden"></rect></g></svg></g></svg>