<svg id="Layer_1" data-name="Layer 1" xmlns="http://www.w3.org/2000/svg" viewBox="0 0 32 32"><path d="M16,0A16,16,0,0,0,1.18,10H1v.49a15.68,15.68,0,0,0,0,11V22h.18A16,16,0,1,0,16,0ZM28.63,10H23a23.65,23.65,0,0,0-4.42-7.75A14,14,0,0,1,28.63,10ZM22,16a16.53,16.53,0,0,1-.51,4h-11a15.94,15.94,0,0,1,0-8h11A16.53,16.53,0,0,1,22,16ZM16,2.39A22.38,22.38,0,0,1,20.88,10H11.12A22.53,22.53,0,0,1,16,2.39Zm-2.59-.14A23.65,23.65,0,0,0,9,10H3.37A14,14,0,0,1,13.41,2.25ZM2,16a13.92,13.92,0,0,1,.59-4H8.45a18,18,0,0,0,0,8H2.59A13.92,13.92,0,0,1,2,16Zm1.37,6H9a23.65,23.65,0,0,0,4.42,7.75A14,14,0,0,1,3.37,22ZM16,29.61A22.38,22.38,0,0,1,11.12,22h9.76A22.53,22.53,0,0,1,16,29.61Zm2.59.14A23.65,23.65,0,0,0,23,22h5.62A14,14,0,0,1,18.59,29.75Zm5-9.75a18,18,0,0,0,0-8h5.86a13.85,13.85,0,0,1,0,8Z"/></svg>