<svg width="800" height="600" xmlns="http://www.w3.org/2000/svg">

 <g>
  <title>Layer 1</title>
  <g>

   <title stroke="#000000" fill="#ffffff">payroll-salary</title>
   <path stroke="#000000" fill="#ffffff" fill-rule="evenodd" d="m449.4041,317.26006l10.06,0a1,1 0 0 1 1,1l0,24.4a1,1 0 0 1 -1,1l-10.06,0a1,1 0 0 1 -1,-1l0,-24.42a1,1 0 0 1 1,-1l0,0.02zm-37.6,-28.86a5.71,5.71 0 1 1 -4,7a5.71,5.71 0 0 1 4,-7zm34.69,11.67l-19.32,17.6l-2.36,-2.53l13.76,-12.58l0.19,-0.16a3.28,3.28 0 0 0 0.16,-4.63l-22.41,-27.32l3.27,-3l26.71,32.62zm-108.24,-38.21l9.06,-2.4a0.93,0.93 0 0 1 1.13,0.66l5.89,22a0.92,0.92 0 0 1 -0.65,1.13l-9.06,2.41a0.92,0.92 0 0 1 -1.13,-0.65l-5.92,-21.99a0.92,0.92 0 0 1 0.68,-1.16zm13.32,0.68a1.78,1.78 0 0 1 0,-1.14c0.38,-0.95 1.85,-1.09 2.76,-1.34a13.34,13.34 0 0 0 2.72,-1a32.71,32.71 0 0 0 3.62,-2.38c3,-2.08 5.79,-3.82 8.71,-5.82c6.5,-4.52 4.19,-4.51 12.49,-3.35a85.94,85.94 0 0 1 10.58,2.17a5.93,5.93 0 0 1 1.41,0.54a5.62,5.62 0 0 1 1.21,1c4,3.37 7.51,6.9 11,10.47c1.18,1.26 1.87,2.57 1.57,3.59c-1.23,4.2 -6.56,0.12 -11.73,-2.15c-2.17,-1 -5,-1.58 -7.44,-2.47c-3,-0.41 -4.53,-1.14 -7.57,-1c-4.53,0.8 -3.2,7.25 2.69,5.92c4,-0.9 13.09,0.5 16.25,3.19c3,2.5 2.59,5.85 -1.78,6.9l-3.81,0.29c-6.07,0.47 -6,0.2 -11.68,2.93c-3.07,1.47 -6.29,3 -9.79,3.27c-2.12,0.17 -3.41,-0.36 -5.59,-1.25a16.31,16.31 0 0 0 -3.42,-1.24a10.9,10.9 0 0 0 -2.94,-0.42c-1.48,0 -3.3,1 -4.43,0a2.28,2.28 0 0 1 -0.65,-1.09l-4.18,-15.62zm58.59,6.54l26.79,31.15l-20.6,18.77l-29,-33.67l6.33,-5.76l5.4,-0.42l0.47,-0.08a9.67,9.67 0 0 0 3.78,-1.74l-6.44,5.87a4.12,4.12 0 0 1 -0.27,5.82l16.95,20.39a4.12,4.12 0 0 1 5.81,0.27l8.14,-7.43a4.11,4.11 0 0 1 0.27,-5.81l-16.9,-20.4l0,0a4.11,4.11 0 0 1 -5.82,-0.27l-1,0.92a3.58,3.58 0 0 0 0.26,-0.29a5.94,5.94 0 0 0 1.24,-2.54a6,6 0 0 0 0,-2.8a7.27,7.27 0 0 0 -0.31,-1c2,0.4 3.65,0.19 4.89,-1l0.01,0.02zm35.06,72.43l0,-22.05l-9.96,0c-4.2,0.75 -8.4,3 -12.61,5.68l-7.7,0c-3.49,0.21 -5.32,3.74 -1.93,6.06c2.7,2 6.27,1.87 9.92,1.55c2.52,-0.13 2.63,3.26 0,3.27c-0.91,0.07 -1.9,-0.15 -2.77,-0.15c-4.6,-0.01 -8.31,-0.87 -10.6,-4.47l-1.15,-2.7l-11.48,-5.68c-5.73,-1.89 -9.8,4.11 -5.58,8.29a150.31,150.31 0 0 0 25.52,15c6.33,3.84 12.65,3.71 19,0l9.33,-4.82l0.01,0.02z" class="cls-1"/>
  </g>
  <line stroke="#000" stroke-linecap="undefined" stroke-linejoin="undefined" id="svg_2" y2="266" x2="383" y1="266" x1="384" fill="none"/>
 </g>
</svg>