<svg width="800" height="600" xmlns="http://www.w3.org/2000/svg">

 <g>
  <title>Layer 1</title>
  <line stroke="#000" stroke-linecap="undefined" stroke-linejoin="undefined" id="svg_2" y2="266" x2="383" y1="266" x1="384" fill="none"/>
  <g>
   <g>
    <path fill="#ffffff" stroke="#000000" d="m364.60763,337.47281l0,-38.425l17.287,0c7.326,1.311 14.653,5.288 21.979,9.898l13.426,0c6.078,0.363 9.262,6.526 3.352,10.573c-4.705,3.456 -10.918,3.258 -17.287,2.686c-4.392,-0.219 -4.579,5.683 0,5.703c1.594,0.125 3.32,-0.249 4.828,-0.249c7.941,-0.012 14.488,-1.53 18.494,-7.807l2.01,-4.693l19.971,-9.897c9.992,-3.289 17.1,7.16 9.732,14.435c-14.467,10.522 -29.299,19.181 -44.471,26.175c-11.021,6.703 -22.044,6.473 -33.055,0l-16.266,-8.399l0,0l0,0zm66.319,-60.603c2.059,0 3.707,0.59 4.963,1.759c1.25,1.175 1.881,2.734 1.881,4.683c0,1.942 -0.631,3.507 -1.881,4.677c-1.256,1.174 -2.904,1.759 -4.963,1.759s-3.715,-0.585 -4.969,-1.759c-1.25,-1.176 -1.875,-2.735 -1.875,-4.677c0,-1.949 0.625,-3.508 1.875,-4.683c1.254,-1.169 2.911,-1.759 4.969,-1.759l0,0l0,0zm-9.57,-27.683c15.758,0 28.533,12.774 28.533,28.533c0,15.758 -12.775,28.533 -28.533,28.533s-28.533,-12.774 -28.533,-28.533c0,-15.759 12.775,-28.533 28.533,-28.533l0,0zm0,5.378c12.787,0 23.154,10.367 23.154,23.155s-10.367,23.155 -23.154,23.155c-12.789,0 -23.155,-10.366 -23.155,-23.154s10.366,-23.156 23.155,-23.156l0,0zm5.369,12.062l5.57,0l-16.312,22.186l-5.57,0l16.312,-22.186l0,0l0,0zm4.201,14.699c-0.602,0 -1.064,0.178 -1.383,0.517c-0.316,0.355 -0.479,0.834 -0.479,1.476c0,0.633 0.162,1.119 0.479,1.467c0.318,0.348 0.781,0.518 1.383,0.518c0.596,0 1.059,-0.177 1.377,-0.518c0.316,-0.348 0.479,-0.834 0.479,-1.467c0,-0.642 -0.164,-1.128 -0.479,-1.476c-0.31,-0.347 -0.773,-0.517 -1.377,-0.517l0,0l0,0zm-19.217,-11.16c-0.604,0 -1.061,0.177 -1.377,0.518c-0.316,0.347 -0.479,0.834 -0.479,1.467c0,0.634 0.162,1.128 0.479,1.475c0.316,0.34 0.773,0.518 1.377,0.518c0.602,0 1.064,-0.178 1.381,-0.518c0.316,-0.355 0.471,-0.841 0.471,-1.475c0,-0.633 -0.154,-1.12 -0.471,-1.467c-0.308,-0.341 -0.771,-0.518 -1.381,-0.518l0,0l0,0zm-0.002,-4.457c2.059,0 3.715,0.584 4.971,1.76c1.248,1.175 1.873,2.734 1.873,4.677c0,1.949 -0.625,3.508 -1.873,4.683c-1.256,1.175 -2.912,1.759 -4.971,1.759c-2.057,0 -3.707,-0.59 -4.963,-1.759c-1.25,-1.175 -1.881,-2.734 -1.881,-4.683c0,-1.942 0.631,-3.507 1.881,-4.677c1.256,-1.175 2.907,-1.76 4.963,-1.76l0,0l0,0zm-73.148,29.645l20.844,0l0,45.98l-20.844,0l0,-45.98l0,0z" clip-rule="evenodd" fill-rule="evenodd"/>
   </g>
  </g>
 </g>
</svg>